<?xml version="1.0" encoding="utf-8"?>
<!-- Generator: Adobe Illustrator 17.0.0, SVG Export Plug-In . SVG Version: 6.00 Build 0)  -->
<!DOCTYPE svg PUBLIC "-//W3C//DTD SVG 1.1//EN" "http://www.w3.org/Graphics/SVG/1.1/DTD/svg11.dtd">
<svg version="1.1" id="Capa_1" xmlns="http://www.w3.org/2000/svg" xmlns:xlink="http://www.w3.org/1999/xlink" x="0px" y="0px"
	 width="20px" height="15px" viewBox="0 0 20 15" enable-background="new 0 0 20 15" xml:space="preserve">
<g>
	<polygon fill="#FFFFFF" points="0,4.332 0,11.748 4.458,8.039 	"/>
	<path fill="#FFFFFF" d="M13.816,2.025H1.184c-0.583,0-1.07,0.427-1.167,0.983L5.91,7.909l0.982,0.817
		c0.334,0.278,0.88,0.278,1.214,0l1.032-0.858l5.843-4.86C14.886,2.451,14.399,2.025,13.816,2.025z"/>
	<polygon fill="#FFFFFF" points="15,11.748 15,4.332 10.542,8.039 	"/>
	<path fill="#FFFFFF" d="M8.905,9.401l-0.798,0.664c-0.334,0.278-0.88,0.278-1.214,0L5.864,9.208l-0.601-0.5l-4.817,4.006
		c0.203,0.163,0.46,0.261,0.738,0.261h12.632c0.279,0,0.535-0.098,0.738-0.261L9.737,8.709L8.905,9.401z"/>
</g>
</svg>
