<?xml version="1.0" encoding="utf-8"?>
<!-- Generator: Adobe Illustrator 17.0.0, SVG Export Plug-In . SVG Version: 6.00 Build 0)  -->
<!DOCTYPE svg PUBLIC "-//W3C//DTD SVG 1.1//EN" "http://www.w3.org/Graphics/SVG/1.1/DTD/svg11.dtd">
<svg version="1.1" id="Capa_1" xmlns="http://www.w3.org/2000/svg" xmlns:xlink="http://www.w3.org/1999/xlink" x="0px" y="0px"
	 width="50px" height="25px" viewBox="0 0 50 25" enable-background="new 0 0 50 25" xml:space="preserve">
<g>
	<g>
		<path fill="#37508F" d="M50,20.728C50,23.088,48.088,25,45.728,25H29.272C26.912,25,25,23.087,25,20.728V4.273
			C25,1.913,26.913,0,29.272,0h16.456C48.088,0,50,1.913,50,4.273V20.728z"/>
		<path fill="#FFFFFF" d="M42.154,25v-9.598h3.222l0.482-3.741h-3.704V9.272c0-1.083,0.301-1.821,1.854-1.821l1.981-0.001V4.104
			c-0.343-0.046-1.518-0.148-2.887-0.148c-2.856,0-4.811,1.743-4.811,4.944v2.759h-3.23V15.4h3.23V25H42.154L42.154,25z"/>
	</g>
	<g>
		<path fill="#FFFFFF" d="M13.904,24v-9.598h3.222l0.482-3.741h-3.704V8.273c0-1.083,0.301-1.821,1.854-1.821l1.981-0.001V3.104
			c-0.343-0.045-1.518-0.147-2.887-0.147c-2.856,0-4.811,1.743-4.811,4.944v2.759h-3.23v3.741h3.23V24H13.904L13.904,24z"/>
	</g>
</g>
</svg>
