<?xml version="1.0" encoding="utf-8"?>
<!-- Generator: Adobe Illustrator 17.0.0, SVG Export Plug-In . SVG Version: 6.00 Build 0)  -->
<!DOCTYPE svg PUBLIC "-//W3C//DTD SVG 1.1//EN" "http://www.w3.org/Graphics/SVG/1.1/DTD/svg11.dtd">
<svg version="1.1" id="Capa_1" xmlns="http://www.w3.org/2000/svg" xmlns:xlink="http://www.w3.org/1999/xlink" x="0px" y="0px"
	 width="50px" height="25px" viewBox="0 0 50 25" enable-background="new 0 0 50 25" xml:space="preserve">
<path fill="#FFFFFF" d="M12.5,2.013c-5.609,0-10.156,4.298-10.156,9.599c0,3.04,1.5,5.746,3.834,7.504l-0.163,3.869l3.189-2.302
	c1.035,0.336,2.141,0.527,3.296,0.527c5.609,0,10.156-4.298,10.156-9.599C22.656,6.311,18.109,2.013,12.5,2.013z M13.479,14.727
	l-2.692-2.937l-4.772,2.937l5.506-5.874l2.447,2.937l5.017-2.937L13.479,14.727z"/>
<g>
	<g>
		<path fill="#20B2E3" d="M50,20.728C50,23.087,48.087,25,45.728,25H29.272C26.913,25,25,23.087,25,20.728V4.272
			C25,1.912,26.913,0,29.272,0h16.456C48.087,0,50,1.912,50,4.272V20.728z"/>
	</g>
	<g>
		<path fill="#FFFFFF" d="M37.5,2.013c-5.609,0-10.156,4.298-10.156,9.599c0,3.04,1.5,5.746,3.834,7.504l-0.163,3.869l3.189-2.302
			c1.035,0.336,2.141,0.527,3.296,0.527c5.609,0,10.156-4.298,10.156-9.599S43.109,2.013,37.5,2.013z"/>
		<polygon fill="#20B2E3" points="31.015,14.726 36.521,8.853 38.968,11.79 43.985,8.853 38.479,14.726 35.787,11.79 		"/>
	</g>
</g>
</svg>
