<?xml version="1.0" encoding="utf-8"?>
<!-- Generator: Adobe Illustrator 17.0.0, SVG Export Plug-In . SVG Version: 6.00 Build 0)  -->
<!DOCTYPE svg PUBLIC "-//W3C//DTD SVG 1.1//EN" "http://www.w3.org/Graphics/SVG/1.1/DTD/svg11.dtd">
<svg version="1.1" id="Capa_1" xmlns="http://www.w3.org/2000/svg" xmlns:xlink="http://www.w3.org/1999/xlink" x="0px" y="0px"
	 width="50px" height="25px" viewBox="0 0 50 25" enable-background="new 0 0 50 25" xml:space="preserve">
<g>
	
		<radialGradient id="SVGID_1_" cx="-510.5998" cy="-1727.6119" r="50.8237" fx="-526.2766" fy="-1729.8892" gradientTransform="matrix(0.6534 -0.757 -0.6147 -0.5306 -699.0645 -1283.614)" gradientUnits="userSpaceOnUse">
		<stop  offset="0" style="stop-color:#EEE340"/>
		<stop  offset="0.0536" style="stop-color:#EAD850"/>
		<stop  offset="0.1636" style="stop-color:#DFB867"/>
		<stop  offset="0.3185" style="stop-color:#D08077"/>
		<stop  offset="0.4486" style="stop-color:#C03974"/>
		<stop  offset="0.592" style="stop-color:#9E4481"/>
		<stop  offset="0.7358" style="stop-color:#794A8A"/>
		<stop  offset="0.8568" style="stop-color:#5C4B90"/>
		<stop  offset="0.9484" style="stop-color:#444A93"/>
		<stop  offset="1" style="stop-color:#384993"/>
	</radialGradient>
	<path fill="url(#SVGID_1_)" d="M50,20.728C50,23.088,48.088,25,45.728,25H29.272C26.912,25,25,23.087,25,20.728V4.273
		C25,1.913,26.913,0,29.272,0h16.456C48.088,0,50,1.913,50,4.273V20.728z"/>
	<g>
		<g>
			<path fill="#FFFFFF" d="M41.481,22.416h-7.962c-3.533,0-6.408-2.874-6.408-6.408V8.992c0-3.534,2.875-6.408,6.408-6.408h7.962
				c3.533,0,6.408,2.874,6.408,6.408v7.016C47.889,19.542,45.014,22.416,41.481,22.416z M33.519,4.008
				c-2.748,0-4.984,2.236-4.984,4.984v7.016c0,2.748,2.236,4.984,4.984,4.984h7.962c2.748,0,4.984-2.236,4.984-4.984V8.992
				c0-2.748-2.236-4.984-4.984-4.984H33.519z"/>
		</g>
		<g>
			<path fill="#FFFFFF" d="M37.5,18.204c-3.146,0-5.704-2.559-5.704-5.704s2.559-5.704,5.704-5.704s5.704,2.559,5.704,5.704
				S40.646,18.204,37.5,18.204z M37.5,8.22c-2.36,0-4.281,1.92-4.281,4.28s1.92,4.281,4.281,4.281c2.36,0,4.28-1.92,4.28-4.281
				C41.78,10.14,39.86,8.22,37.5,8.22z"/>
		</g>
		<g>
			<circle fill="#FFFFFF" cx="43.117" cy="6.971" r="1.184"/>
		</g>
	</g>
</g>
<g>
	<g>
		<g>
			<path fill="#FFFFFF" d="M16.481,22.417H8.519c-3.533,0-6.408-2.875-6.408-6.409V8.992c0-3.534,2.875-6.408,6.408-6.408h7.962
				c3.533,0,6.408,2.874,6.408,6.408v7.016C22.889,19.542,20.014,22.417,16.481,22.417z M8.519,4.008
				c-2.748,0-4.984,2.236-4.984,4.984v7.016c0,2.749,2.236,4.984,4.984,4.984h7.962c2.748,0,4.984-2.236,4.984-4.984V8.992
				c0-2.748-2.236-4.984-4.984-4.984H8.519L8.519,4.008z"/>
		</g>
		<g>
			<path fill="#FFFFFF" d="M12.5,18.204c-3.146,0-5.704-2.559-5.704-5.704S9.355,6.796,12.5,6.796s5.704,2.559,5.704,5.704
				S15.646,18.204,12.5,18.204z M12.5,8.22c-2.36,0-4.281,1.92-4.281,4.281c0,2.36,1.92,4.28,4.281,4.28c2.36,0,4.28-1.92,4.28-4.28
				C16.78,10.14,14.86,8.22,12.5,8.22z"/>
		</g>
		<g>
			<circle fill="#FFFFFF" cx="18.117" cy="6.971" r="1.184"/>
		</g>
	</g>
</g>
</svg>
