<?xml version="1.0" encoding="utf-8"?>
<!-- Generator: Adobe Illustrator 17.0.0, SVG Export Plug-In . SVG Version: 6.00 Build 0)  -->
<!DOCTYPE svg PUBLIC "-//W3C//DTD SVG 1.1//EN" "http://www.w3.org/Graphics/SVG/1.1/DTD/svg11.dtd">
<svg version="1.1" id="Capa_1" xmlns="http://www.w3.org/2000/svg" xmlns:xlink="http://www.w3.org/1999/xlink" x="0px" y="0px"
	 width="20px" height="15px" viewBox="0 0 20 15" enable-background="new 0 0 20 15" xml:space="preserve">
<g>
	<path fill="#FFFFFF" d="M5.621,5.303c0.148-0.148,0.36-0.405,0.47-0.675c0.38-0.933,0.207-1.114,0.207-1.114
		c-0.25-0.539-0.785-1.259-1.492-1.967C4.098,0.839,3.377,0.305,2.839,0.055c0,0-0.876-0.269-1.533,0.39
		c-0.004-0.002,0,0-0.007,0.007C1.298,0.453,1.297,0.453,1.296,0.453l0.001,0.001c-0.09,0.091-0.174,0.182-0.252,0.273L5.621,5.303z
		"/>
	<path fill="#FFFFFF" d="M14.946,12.161c-0.25-0.539-0.785-1.259-1.493-1.967c-0.707-0.708-1.428-1.243-1.967-1.492
		c0,0-0.181-0.174-1.114,0.207c-0.27,0.11-0.527,0.322-0.675,0.469l4.577,4.577c0.09-0.078,0.181-0.162,0.273-0.252l0,0
		c0,0,0-0.001,0.001-0.003c0.007-0.007,0.009-0.004,0.007-0.007C15.215,13.036,14.946,12.161,14.946,12.161z"/>
	<path fill="#FFFFFF" d="M9.208,10.036C9.063,10.23,8.834,10.31,8.561,10.31c-0.833,0-2.079-0.746-2.602-1.268
		c-0.695-0.696-1.781-2.664-0.994-3.25C5.009,5.765,5.054,5.736,5.1,5.707L0.645,1.252C-0.027,2.271,0,3.084,0,3.084
		s-0.116,3.698,4.052,7.865C7.999,14.896,11.524,15,11.886,15c0.02,0,0.03,0,0.03,0s0.005,0,0.014,0c0.11,0,0.876-0.023,1.818-0.645
		L9.293,9.901C9.264,9.946,9.235,9.991,9.208,10.036z"/>
</g>
</svg>
