<?xml version="1.0" encoding="utf-8"?>
<!-- Generator: Adobe Illustrator 17.0.0, SVG Export Plug-In . SVG Version: 6.00 Build 0)  -->
<!DOCTYPE svg PUBLIC "-//W3C//DTD SVG 1.1//EN" "http://www.w3.org/Graphics/SVG/1.1/DTD/svg11.dtd">
<svg version="1.1" id="Capa_1" xmlns="http://www.w3.org/2000/svg" xmlns:xlink="http://www.w3.org/1999/xlink" x="0px" y="0px"
	 width="20px" height="15px" viewBox="0 0 20 15" enable-background="new 0 0 20 15" xml:space="preserve">
<path fill="#FFFFFF" d="M7.5,0C3.358,0,0,3.358,0,7.5S3.358,15,7.5,15S15,11.642,15,7.5S11.642,0,7.5,0z M7.5,13.583
	c-3.36,0-6.083-2.724-6.083-6.083c0-3.36,2.724-6.083,6.083-6.083S13.583,4.14,13.583,7.5S10.86,13.583,7.5,13.583z"/>
<path fill="#FFFFFF" d="M7.5,0.193c-2.139,0-4.066,0.924-5.403,2.393C0.914,3.884,0.193,5.609,0.193,7.5
	c0,4.029,3.278,7.307,7.307,7.307c1.891,0,3.617-0.722,4.915-1.905c1.469-1.337,2.392-3.264,2.392-5.402
	C14.807,3.471,11.529,0.193,7.5,0.193z M11.719,12.208c-1.006,0.903-2.302,1.489-3.731,1.599v-0.951c0-0.269-0.22-0.488-0.488-0.488
	s-0.488,0.22-0.488,0.488v0.951c-0.165-0.013-0.327-0.033-0.488-0.058c-2.709-0.421-4.851-2.563-5.272-5.272
	C1.226,8.315,1.206,8.153,1.194,7.988h0.951c0.268,0,0.488-0.22,0.488-0.488c0-0.269-0.22-0.488-0.488-0.488H1.194
	C1.303,5.583,1.89,4.287,2.793,3.28C3.849,2.103,5.34,1.322,7.012,1.193v0.951c0,0.268,0.22,0.488,0.488,0.488
	s0.488-0.22,0.488-0.488V1.74V1.193c3.101,0.238,5.58,2.717,5.818,5.819H13.26h-0.405c-0.268,0-0.488,0.22-0.488,0.488
	s0.22,0.488,0.488,0.488h0.951C13.678,9.661,12.897,11.151,11.719,12.208z"/>
<path fill="#FFFFFF" d="M12.667,2.333c-1.512-1.512-3.528-2.222-5.513-2.129C5.4,0.287,3.67,0.996,2.333,2.333
	c-2.849,2.849-2.849,7.485,0,10.334c1.337,1.337,3.068,2.047,4.822,2.129c1.984,0.093,3.999-0.616,5.511-2.128
	C15.516,9.818,15.516,5.182,12.667,2.333z M7.155,13.812c-1.35-0.073-2.681-0.575-3.769-1.508l0.673-0.673
	c0.19-0.19,0.19-0.5,0-0.69c-0.19-0.19-0.5-0.19-0.69,0l-0.673,0.673c-0.108-0.125-0.208-0.255-0.304-0.386
	c-1.618-2.213-1.618-5.242,0-7.456C2.487,3.64,2.588,3.511,2.695,3.386l0.673,0.673c0.19,0.19,0.5,0.19,0.69,0
	c0.19-0.19,0.19-0.5,0-0.69L3.386,2.696c1.088-0.933,2.419-1.435,3.77-1.508c1.58-0.086,3.186,0.416,4.459,1.508l-0.673,0.673
	c-0.19,0.19-0.19,0.5,0,0.69s0.501,0.19,0.69,0l0.287-0.287l0.386-0.386c2.024,2.362,2.025,5.867,0,8.229l-0.386-0.386l-0.287-0.287
	c-0.19-0.19-0.5-0.19-0.69,0s-0.19,0.5,0,0.69l0.673,0.673C10.341,13.396,8.735,13.898,7.155,13.812z"/>
<path fill="#FFFFFF" d="M7.628,3.798C7.49,3.787,7.37,3.891,7.36,4.029l0.006,2.773c-0.231,0.025-0.446,0.154-0.57,0.37
	C6.651,7.426,6.672,7.726,6.821,7.955l-1.764,1.71C4.958,9.761,4.955,9.92,5.052,10.019c0.096,0.099,0.255,0.102,0.355,0.005
	L6.948,8.53l0.276-0.267C7.553,8.367,7.92,8.232,8.099,7.921c0.037-0.065,0.06-0.133,0.077-0.202
	c0.047-0.198,0.01-0.404-0.098-0.572C8.023,7.059,7.95,6.982,7.859,6.922L7.828,4.484l0.031-0.418
	C7.869,3.928,7.766,3.808,7.628,3.798z"/>
</svg>
