<?xml version="1.0" encoding="utf-8"?>
<!-- Generator: Adobe Illustrator 17.0.0, SVG Export Plug-In . SVG Version: 6.00 Build 0)  -->
<!DOCTYPE svg PUBLIC "-//W3C//DTD SVG 1.1//EN" "http://www.w3.org/Graphics/SVG/1.1/DTD/svg11.dtd">
<svg version="1.1" id="Capa_1" xmlns="http://www.w3.org/2000/svg" xmlns:xlink="http://www.w3.org/1999/xlink" x="0px" y="0px"
	 width="50px" height="25px" viewBox="0 0 50 25" enable-background="new 0 0 50 25" xml:space="preserve">
<g>
	<g>
		<g>
			<path fill="#429A45" d="M50,20.728C50,23.088,48.088,25,45.728,25H29.272C26.913,25,25,23.087,25,20.728V4.272
				C25,1.913,26.913,0,29.272,0h16.456C48.088,0,50,1.913,50,4.272V20.728z"/>
		</g>
		<g>
			<g>
				<path fill="#FFFFFF" d="M37.5,22.073c-1.676,0-3.319-0.444-4.774-1.285l-3.729,1.285l0.766-3.949
					c-1.202-1.647-1.835-3.583-1.835-5.623c0-5.278,4.294-9.572,9.572-9.572s9.573,4.294,9.573,9.572
					C47.073,17.778,42.779,22.073,37.5,22.073z M32.897,19.221l0.288,0.181c1.3,0.815,2.792,1.246,4.314,1.246
					c4.493,0,8.148-3.655,8.148-8.148c0-4.492-3.655-8.147-8.148-8.147s-8.148,3.655-8.148,8.147c0,1.828,0.599,3.56,1.731,5.009
					l0.2,0.256l-0.419,2.158L32.897,19.221z"/>
			</g>
			<path fill="#FFFFFF" d="M32.667,8.823c0,0,0.561-0.982,1.019-1.038s1.048-0.056,1.206,0.243c0.159,0.299,0.869,2.039,0.869,2.039
				s0.121,0.299-0.066,0.589s-0.608,0.711-0.608,0.711s-0.234,0.299,0,0.617s0.596,0.903,1.347,1.652
				c0.749,0.749,2.188,1.284,2.188,1.284s0.206,0.028,0.337-0.103s0.842-1.019,0.842-1.019s0.229-0.294,0.608-0.121
				c0.378,0.173,2.019,0.991,2.019,0.991s0.192,0.07,0.192,0.36s-0.118,0.999-0.357,1.239c-0.24,0.24-0.941,0.979-1.994,0.979
				c-1.054,0-3.563-0.858-4.9-2.194c-1.337-1.337-2.524-2.693-2.805-3.928C32.284,9.888,32.322,9.331,32.667,8.823z"/>
		</g>
	</g>
	<g>
		<g>
			<g>
				<path fill="#FFFFFF" d="M12.5,22.072c-1.676,0-3.319-0.443-4.774-1.285l-3.729,1.285l0.766-3.949
					c-1.201-1.646-1.835-3.584-1.835-5.622c0-5.278,4.294-9.572,9.573-9.572s9.573,4.294,9.573,9.572
					C22.073,17.778,17.779,22.072,12.5,22.072z M7.897,19.221l0.288,0.181c1.3,0.815,2.792,1.246,4.314,1.246
					c4.493,0,8.148-3.655,8.148-8.148s-3.655-8.148-8.148-8.148c-4.493,0.001-8.147,3.656-8.147,8.149
					c0,1.828,0.599,3.56,1.731,5.008l0.2,0.256l-0.419,2.158L7.897,19.221z"/>
			</g>
			<path fill="#FFFFFF" d="M7.667,8.823c0,0,0.561-0.982,1.019-1.038s1.048-0.056,1.206,0.243c0.159,0.299,0.869,2.039,0.869,2.039
				s0.121,0.299-0.066,0.589s-0.608,0.711-0.608,0.711s-0.234,0.299,0,0.618c0.234,0.318,0.596,0.903,1.347,1.652
				c0.749,0.75,2.188,1.284,2.188,1.284s0.206,0.028,0.337-0.102c0.131-0.131,0.842-1.019,0.842-1.019s0.229-0.294,0.608-0.121
				c0.378,0.173,2.019,0.991,2.019,0.991s0.192,0.071,0.192,0.36c0,0.29-0.118,0.999-0.357,1.239
				c-0.24,0.24-0.941,0.979-1.994,0.979c-1.054,0-3.563-0.857-4.9-2.194s-2.524-2.693-2.805-3.927
				C7.284,9.888,7.322,9.331,7.667,8.823z"/>
		</g>
	</g>
</g>
</svg>
