<?xml version="1.0" encoding="utf-8"?>
<!-- Generator: Adobe Illustrator 17.0.0, SVG Export Plug-In . SVG Version: 6.00 Build 0)  -->
<!DOCTYPE svg PUBLIC "-//W3C//DTD SVG 1.1//EN" "http://www.w3.org/Graphics/SVG/1.1/DTD/svg11.dtd">
<svg version="1.1" id="Capa_1" xmlns="http://www.w3.org/2000/svg" xmlns:xlink="http://www.w3.org/1999/xlink" x="0px" y="0px"
	 width="354.331px" height="115px" viewBox="-2.165 0 354.331 115" enable-background="new -2.165 0 354.331 115"
	 xml:space="preserve">
<g>
	<g>
		<path fill="#434142" d="M153.085,83.594l-0.153,0.065v0.153l-0.241,0.175l-0.197,0.263l-0.416,0.021l-0.131,0.022
			c-0.059,0.028-0.146,0.043-0.263,0.043c-0.146,0-0.299-0.043-0.459-0.131c-0.059-0.015-0.131-0.048-0.219-0.099
			s-0.153-0.142-0.197-0.273l-0.175-0.131l-0.087-0.022v-0.612c0-0.233,0.175-0.423,0.525-0.568
			c0.117-0.103,0.285-0.227,0.503-0.372l0.372,0.109l0.065,0.065l0.065-0.065l0.131,0.087h0.109c0.175,0,0.299,0.059,0.372,0.176
			l0.153,0.284l0.24,0.306l-0.043,0.307L153.085,83.594z"/>
		<path fill="#434142" d="M158.883,83.594l-0.153,0.065v0.153l-0.241,0.175l-0.197,0.263l-0.416,0.021l-0.131,0.022
			c-0.059,0.028-0.146,0.043-0.263,0.043c-0.146,0-0.299-0.043-0.459-0.131c-0.059-0.015-0.131-0.048-0.219-0.099
			s-0.153-0.142-0.197-0.273l-0.175-0.131l-0.087-0.022v-0.612c0-0.233,0.175-0.423,0.525-0.568
			c0.117-0.103,0.285-0.227,0.503-0.372l0.372,0.109l0.065,0.065l0.065-0.065l0.131,0.087h0.109c0.175,0,0.299,0.059,0.372,0.176
			l0.153,0.284l0.24,0.306l-0.043,0.307L158.883,83.594z"/>
		<path fill="#434142" d="M164.68,83.594l-0.153,0.065v0.153l-0.241,0.175l-0.197,0.263l-0.416,0.021l-0.131,0.022
			c-0.059,0.028-0.146,0.043-0.263,0.043c-0.146,0-0.299-0.043-0.459-0.131c-0.059-0.015-0.131-0.048-0.219-0.099
			s-0.153-0.142-0.197-0.273l-0.175-0.131l-0.087-0.022v-0.612c0-0.233,0.175-0.423,0.525-0.568
			c0.117-0.103,0.285-0.227,0.503-0.372l0.372,0.109l0.065,0.065l0.065-0.065l0.131,0.087h0.109c0.175,0,0.299,0.059,0.372,0.176
			l0.153,0.284l0.24,0.306l-0.043,0.307L164.68,83.594z"/>
		<path fill="#434142" d="M175.444,80.728l-0.416,0.394l-0.022,0.132c-0.043,0.262-0.167,0.474-0.372,0.634
			c-0.35,0.656-0.839,1.138-1.466,1.444l-0.328,0.263l-0.285,0.043l-0.35,0.263l-0.241,0.022l-0.547,0.35l-0.35-0.044l-0.394,0.219
			l-0.307-0.131l-0.153,0.131l-0.416-0.065l-0.416,0.065l-0.153-0.131l-0.438-0.088l-0.634-0.481l-0.35-0.438
			c-0.219-0.276-0.328-0.51-0.328-0.699v-0.066l-0.219-0.328v-0.284c-0.044-0.175-0.065-0.335-0.065-0.481v-0.153l-0.109-0.371
			l0.109-0.263l-0.088-0.176l0.263-0.415l-0.065-0.351l0.175-0.568l0.087-0.132l0.088-0.524l-0.044-0.088l0.263-0.284l0.043-0.219
			l0.175-0.503l0.284-0.613l0.394-0.35l0.087-0.197l0.131-0.24l0.043-0.219l0.35-0.416c0.087-0.029,0.189-0.058,0.306-0.087
			c0.058-0.277,0.423-0.438,1.094-0.481c0.569,0.116,0.933,0.27,1.094,0.459c0.16,0.029,0.285,0.095,0.372,0.197l0.459,0.021
			l0.306,0.394c0.071,0.146,0.12,0.291,0.149,0.437l0.169,0.175l-0.065,0.328c0.016,0.102,0.023,0.263,0.023,0.481l0.117,0.088
			v0.328l0.088,0.679c-0.31,0.307-0.665,0.482-1.063,0.525c-0.207-0.381-0.465-0.668-0.775-0.858v-0.727l-0.153-0.242l0.017-0.176
			l-0.227-0.256l-0.11-0.082l-0.198,0.066h-0.286c-0.191,0.043-0.374,0.182-0.55,0.414s-0.352,0.479-0.527,0.741l-0.021,0.219
			l-0.132,0.108v0.394l-0.284,0.305l-0.35,0.96l0.022,0.262l-0.175,0.393l0.066,0.479l-0.131,0.065l-0.044,0.611l0.022,0.109
			l0.264,0.261l0.11,0.458l0.308,0.088l0.022,0.175l0.37,0.074l0.284,0.075c0.102-0.059,0.226-0.088,0.372-0.088h0.153
			c0.175-0.073,0.335-0.109,0.481-0.109c0.102-0.044,0.233-0.088,0.394-0.131c0.175-0.233,0.423-0.351,0.743-0.351h0.131
			c0.073,0,0.124-0.036,0.153-0.109c0.16-0.248,0.415-0.408,0.765-0.481c0.408-0.364,0.642-0.656,0.7-0.875
			c0.204-0.116,0.335-0.299,0.394-0.547l0.131-0.088l0.065-0.503c0.671,0.103,1.006,0.438,1.006,1.007V80.728z"/>
		<path fill="#434142" d="M185.071,76.002l-0.175,0.722l-0.81,0.109l-0.438,0.284l-0.285-0.131l-0.306,0.171l-0.328,0.128
			l-0.219,0.149l-0.008,0.085l-0.455,0.228l-0.306,0.398h-0.153c-0.232,0.248-0.4,0.401-0.502,0.46l-0.307,0.503l-0.109,0.044
			c-0.043,0.117-0.095,0.292-0.152,0.525l-0.307,0.109l-0.131,0.262l-0.175,0.219l-0.043,0.328l-0.175,0.066v0.328l-0.065,0.065
			c0.043,0.073,0.094,0.153,0.152,0.24l-0.328,0.132l-0.044,0.284l-0.219,0.372l0.132,0.284l-0.284,0.394
			c0.028,0.146,0.043,0.249,0.043,0.307c0,0.015,0,0.044,0,0.088c-0.015,0.043-0.021,0.08-0.021,0.109l0.044,0.196l0.372,0.395
			l-0.285,0.503l-0.262,0.196l-0.613,0.307l-0.81-0.328v-0.503l-0.087-0.197l0.065-0.328c-0.029-0.233-0.044-0.408-0.044-0.525
			c0-0.043,0.007-0.102,0.022-0.175c0-0.072,0-0.124,0-0.153l-0.022-0.219c-0.103-0.102-0.153-0.219-0.153-0.35
			c0-0.116,0.051-0.248,0.153-0.394c0-0.073-0.015-0.292-0.044-0.656l0.066-0.066l-0.066-0.284l0.044-0.263l-0.044-0.153
			l0.066-0.503l-0.132-0.219l0.088-0.24l-0.088-0.285c0.015-0.087,0.022-0.204,0.022-0.35c0-0.219-0.029-0.364-0.088-0.438
			l0.088-0.131l-0.088-0.395l-0.197-0.284l0.109-0.35l-0.087-0.132l-0.088-0.524v-0.176c-0.073-0.087-0.109-0.196-0.109-0.328
			c0-0.291,0.321-0.539,0.963-0.743l0.547,0.109l0.109,0.415l0.219,0.284l-0.065,0.591c0.044,0.292,0.095,0.613,0.153,0.963
			l0.065,0.351c0.015,0.029,0.029,0.109,0.044,0.24c0,0.088-0.037,0.183-0.109,0.284l0.065,0.438l-0.044,0.481l-0.088,0.219
			l0.066,0.088l0.043,0.219c0.088-0.103,0.139-0.212,0.153-0.328l0.088-0.328c0.044-0.088,0.109-0.153,0.196-0.197l0.088-0.328
			l0.307-0.175l0.044-0.263l0.24-0.263l0.175-0.328c0.189-0.204,0.372-0.335,0.547-0.394l0.044-0.065l0.197-0.307l0.219-0.044
			l0.065-0.065l0.088-0.131l0.24-0.132l0.131-0.153l0.132,0.022l0.175-0.088l0.088-0.131l0.262-0.132l0.372-0.24l0.525-0.175
			c0.204-0.029,0.313-0.044,0.328-0.044v0.021c-0.015,0-0.021,0.008-0.021,0.022h0.021c0.059,0,0.146-0.029,0.263-0.088
			c0.072-0.059,0.175-0.088,0.307-0.088c0.058,0,0.16,0.015,0.306,0.044C184.815,75.491,185.027,75.666,185.071,76.002z"/>
		<path fill="#434142" d="M192.203,82.347c0,0.175-0.132,0.394-0.395,0.656c-0.073,0.233-0.183,0.423-0.328,0.568l-0.131,0.022
			l-0.241,0.415l-0.394,0.066l-0.415,0.262l-0.219,0.395h-0.241c-0.16,0.062-0.292,0.101-0.394,0.113l-0.132,0.171
			c-0.043,0-0.109,0-0.196,0c-0.189,0-0.372,0.124-0.547,0.372l-0.307-0.263c-0.059,0-0.146,0-0.263,0
			c-0.189,0-0.35-0.037-0.481-0.109h-0.371l-0.176-0.108c-0.554-0.087-0.904-0.297-1.05-0.629v-0.065l-0.263-0.13l-0.131-0.369
			l-0.263-0.174v-0.325l-0.263-0.954v-0.781l0.132-0.347v-0.456l0.109-0.347l-0.022-0.152l0.153-0.26l-0.044,0.044
			c0-0.132,0.036-0.27,0.109-0.416v-0.109l-0.065-0.525c0-0.247,0.109-0.466,0.328-0.656c0.015-0.028,0.021-0.072,0.021-0.131
			s-0.025-0.179-0.076-0.361c-0.052-0.182-0.076-0.31-0.076-0.383c0-0.175,0.043-0.357,0.131-0.547
			c0.116,0.175,0.284,0.263,0.503,0.263h0.065c0.029-0.058,0.095-0.124,0.197-0.197c0.116-0.364,0.277-0.67,0.481-0.919l0.088-0.087
			c0-0.059,0.043-0.227,0.131-0.503h0.175l0.044-0.109l0.175-0.044c0.073-0.117,0.12-0.187,0.143-0.208
			c0.021-0.021,0.179-0.113,0.471-0.273c0.058-0.102,0.146-0.197,0.262-0.284c0.059-0.029,0.132-0.059,0.219-0.088l0.088-0.131
			c0.394-0.132,0.642-0.197,0.744-0.197c0.116,0,0.226,0.029,0.328,0.088l0.109-0.022l0.153,0.088
			c0.175,0.131,0.35,0.24,0.524,0.328l0.372,0.284v0.088c0.335,0.263,0.503,0.634,0.503,1.115l-0.065,0.219l0.065,0.723
			l-0.196,0.131l-0.219,0.568l-0.416,0.46l-0.021,0.35c-0.468,0.336-0.897,0.605-1.291,0.81c-0.132,0.205-0.336,0.307-0.612,0.307
			h-0.066l-0.415,0.263h-0.351l-0.524,0.219l-0.395-0.197h-0.043c-0.03,0.118-0.059,0.294-0.088,0.528l-0.175,0.132l-0.022,0.265
			l-0.131,0.374c0.029,0.353,0.044,0.58,0.044,0.683l-0.073,0.066c0,0.19-0.006,0.33-0.019,0.418c0,0.015-0.006,0.036-0.018,0.065
			c0,0.029,0,0.052,0,0.066c0,0.117,0.058,0.213,0.175,0.286c0.044,0.176,0.116,0.286,0.219,0.33l0.153,0.132l0.481,0.133v0.065
			l0.175,0.044h0.744l0.438-0.064l0.219-0.151l0.131-0.043l0.219-0.325l0.109-0.021l0.547-0.173c0.059-0.101,0.153-0.188,0.284-0.26
			l0.066-0.107c0.291-0.059,0.459-0.21,0.503-0.455c0.204-0.201,0.467-0.303,0.787-0.303h0.088
			C192.064,81.88,192.203,82.143,192.203,82.347z M190.037,76.046c0-0.044-0.022-0.132-0.065-0.263l-0.109-0.022l-0.044,0.022
			c-0.015,0-0.044,0-0.088,0c-0.029,0.015-0.059,0.021-0.087,0.021c-0.016,0-0.037-0.007-0.066-0.021c-0.029,0-0.051,0-0.065,0
			l-0.219,0.153l-0.197,0.021l-0.109,0.044l-0.371,0.481l-0.241,0.175l-0.35,0.612l-0.197,0.132
			c-0.044,0.248-0.146,0.459-0.307,0.634l-0.087,0.153c0.16-0.102,0.343-0.153,0.547-0.153l0.153-0.065l0.065-0.196l0.307,0.021
			l0.175-0.263h0.131l0.241,0.088l0.109-0.328h0.152v-0.241l0.285-0.065l0.065-0.065l0.044-0.197l0.284-0.415
			C190.022,76.235,190.037,76.147,190.037,76.046z"/>
		<path fill="#434142" d="M201.676,80.728l-0.415,0.394l-0.022,0.132c-0.044,0.262-0.168,0.474-0.372,0.634
			c-0.35,0.656-0.839,1.138-1.466,1.444l-0.328,0.263l-0.284,0.043l-0.35,0.263l-0.241,0.022l-0.547,0.35l-0.35-0.044l-0.395,0.219
			l-0.306-0.131l-0.153,0.131l-0.416-0.065l-0.415,0.065l-0.153-0.131l-0.438-0.088l-0.635-0.481l-0.35-0.438
			c-0.219-0.276-0.328-0.51-0.328-0.699v-0.066l-0.219-0.328v-0.284c-0.044-0.175-0.066-0.335-0.066-0.481v-0.153l-0.109-0.371
			l0.109-0.263l-0.087-0.176l0.263-0.415l-0.066-0.351l0.176-0.568l0.087-0.132l0.088-0.524l-0.044-0.088l0.263-0.284l0.044-0.219
			l0.175-0.503l0.284-0.613l0.394-0.35l0.088-0.197l0.131-0.24l0.044-0.219l0.351-0.416c0.087-0.029,0.189-0.058,0.306-0.087
			c0.059-0.277,0.423-0.438,1.094-0.481c0.569,0.116,0.934,0.27,1.095,0.459c0.16,0.029,0.284,0.095,0.371,0.197l0.46,0.021
			l0.306,0.394c0.071,0.146,0.121,0.291,0.149,0.437l0.17,0.175l-0.065,0.328c0.016,0.102,0.023,0.263,0.023,0.481l0.117,0.088
			v0.328l0.087,0.679c-0.31,0.307-0.664,0.482-1.062,0.525c-0.207-0.381-0.465-0.668-0.774-0.858v-0.727l-0.153-0.242l0.016-0.176
			l-0.227-0.256l-0.109-0.082l-0.198,0.066h-0.286c-0.19,0.043-0.374,0.182-0.549,0.414c-0.176,0.232-0.352,0.479-0.527,0.741
			l-0.022,0.219l-0.132,0.108v0.394l-0.284,0.305l-0.35,0.96l0.021,0.262l-0.175,0.393l0.065,0.479l-0.132,0.065l-0.043,0.611
			l0.021,0.109l0.264,0.261l0.11,0.458l0.308,0.088l0.022,0.175l0.37,0.074l0.284,0.075c0.102-0.059,0.227-0.088,0.372-0.088h0.152
			c0.176-0.073,0.336-0.109,0.481-0.109c0.103-0.044,0.233-0.088,0.394-0.131c0.175-0.233,0.423-0.351,0.744-0.351h0.131
			c0.073,0,0.124-0.036,0.153-0.109c0.16-0.248,0.415-0.408,0.766-0.481c0.408-0.364,0.642-0.656,0.699-0.875
			c0.204-0.116,0.336-0.299,0.394-0.547l0.132-0.088l0.065-0.503c0.671,0.103,1.006,0.438,1.006,1.007V80.728z"/>
		<path fill="#434142" d="M209.881,82.347c0,0.175-0.132,0.394-0.395,0.656c-0.073,0.233-0.183,0.423-0.328,0.568l-0.131,0.022
			l-0.241,0.415l-0.394,0.066l-0.415,0.262l-0.219,0.395h-0.241c-0.16,0.062-0.292,0.101-0.394,0.113l-0.132,0.171
			c-0.043,0-0.109,0-0.196,0c-0.189,0-0.372,0.124-0.547,0.372l-0.307-0.263c-0.059,0-0.146,0-0.263,0
			c-0.189,0-0.35-0.037-0.481-0.109h-0.371l-0.176-0.108c-0.554-0.087-0.904-0.297-1.05-0.629v-0.065l-0.263-0.13l-0.131-0.369
			l-0.263-0.174v-0.325l-0.263-0.954v-0.781l0.132-0.347v-0.456l0.109-0.347l-0.022-0.152l0.153-0.26l-0.044,0.044
			c0-0.132,0.036-0.27,0.109-0.416v-0.109l-0.065-0.525c0-0.247,0.109-0.466,0.328-0.656c0.015-0.028,0.021-0.072,0.021-0.131
			s-0.025-0.179-0.076-0.361c-0.052-0.182-0.076-0.31-0.076-0.383c0-0.175,0.043-0.357,0.131-0.547
			c0.116,0.175,0.284,0.263,0.503,0.263h0.065c0.029-0.058,0.095-0.124,0.197-0.197c0.116-0.364,0.277-0.67,0.481-0.919l0.088-0.087
			c0-0.059,0.043-0.227,0.131-0.503h0.175l0.044-0.109l0.175-0.044c0.073-0.117,0.12-0.187,0.143-0.208
			c0.021-0.021,0.179-0.113,0.471-0.273c0.058-0.102,0.146-0.197,0.262-0.284c0.059-0.029,0.132-0.059,0.219-0.088l0.088-0.131
			c0.394-0.132,0.642-0.197,0.744-0.197c0.116,0,0.226,0.029,0.328,0.088l0.109-0.022l0.153,0.088
			c0.175,0.131,0.35,0.24,0.524,0.328l0.372,0.284v0.088c0.335,0.263,0.503,0.634,0.503,1.115l-0.065,0.219l0.065,0.723
			l-0.196,0.131l-0.219,0.568l-0.416,0.46l-0.021,0.35c-0.468,0.336-0.897,0.605-1.291,0.81c-0.132,0.205-0.336,0.307-0.612,0.307
			h-0.066l-0.415,0.263h-0.351l-0.524,0.219l-0.395-0.197h-0.043c-0.03,0.118-0.059,0.294-0.088,0.528l-0.175,0.132l-0.022,0.265
			l-0.131,0.374c0.029,0.353,0.044,0.58,0.044,0.683l-0.073,0.066c0,0.19-0.006,0.33-0.019,0.418c0,0.015-0.006,0.036-0.018,0.065
			c0,0.029,0,0.052,0,0.066c0,0.117,0.058,0.213,0.175,0.286c0.044,0.176,0.116,0.286,0.219,0.33l0.153,0.132l0.481,0.133v0.065
			l0.175,0.044h0.744l0.438-0.064l0.219-0.151l0.131-0.043l0.219-0.325l0.109-0.021l0.547-0.173c0.059-0.101,0.153-0.188,0.284-0.26
			l0.066-0.107c0.291-0.059,0.459-0.21,0.503-0.455c0.204-0.201,0.467-0.303,0.787-0.303h0.088
			C209.742,81.88,209.881,82.143,209.881,82.347z M207.715,76.046c0-0.044-0.022-0.132-0.065-0.263l-0.109-0.022l-0.044,0.022
			c-0.015,0-0.044,0-0.088,0c-0.029,0.015-0.059,0.021-0.087,0.021c-0.016,0-0.037-0.007-0.066-0.021c-0.029,0-0.051,0-0.065,0
			l-0.219,0.153l-0.197,0.021l-0.109,0.044l-0.371,0.481l-0.241,0.175l-0.35,0.612l-0.197,0.132
			c-0.044,0.248-0.146,0.459-0.307,0.634l-0.087,0.153c0.16-0.102,0.343-0.153,0.547-0.153l0.153-0.065l0.065-0.196l0.307,0.021
			l0.175-0.263h0.131l0.241,0.088l0.109-0.328h0.152v-0.241l0.285-0.065l0.065-0.065l0.044-0.197l0.284-0.415
			C207.7,76.235,207.715,76.147,207.715,76.046z"/>
		<path fill="#434142" d="M224.932,80.728l-0.415,0.394l-0.022,0.132c-0.044,0.262-0.168,0.474-0.372,0.634
			c-0.35,0.656-0.839,1.138-1.466,1.444l-0.328,0.263l-0.284,0.043l-0.35,0.263l-0.241,0.022l-0.547,0.35l-0.35-0.044l-0.395,0.219
			l-0.306-0.131l-0.153,0.131l-0.416-0.065l-0.415,0.065l-0.153-0.131l-0.438-0.088l-0.635-0.481l-0.35-0.438
			c-0.219-0.276-0.328-0.51-0.328-0.699v-0.066l-0.219-0.328v-0.284c-0.044-0.175-0.066-0.335-0.066-0.481v-0.153l-0.109-0.371
			l0.109-0.263l-0.087-0.176l0.263-0.415l-0.066-0.351l0.176-0.568l0.087-0.132l0.088-0.524l-0.044-0.088l0.263-0.284l0.044-0.219
			l0.175-0.503l0.284-0.613l0.394-0.35l0.088-0.197l0.131-0.24l0.044-0.219l0.351-0.416c0.087-0.029,0.189-0.058,0.306-0.087
			c0.059-0.277,0.423-0.438,1.094-0.481c0.569,0.116,0.934,0.27,1.095,0.459c0.16,0.029,0.284,0.095,0.371,0.197l0.46,0.021
			l0.306,0.394c0.071,0.146,0.121,0.291,0.149,0.437l0.17,0.175l-0.065,0.328c0.016,0.102,0.023,0.263,0.023,0.481l0.117,0.088
			v0.328l0.087,0.679c-0.31,0.307-0.664,0.482-1.062,0.525c-0.207-0.381-0.465-0.668-0.774-0.858v-0.727l-0.153-0.242l0.016-0.176
			l-0.227-0.256l-0.109-0.082l-0.198,0.066h-0.286c-0.19,0.043-0.374,0.182-0.549,0.414c-0.176,0.232-0.352,0.479-0.527,0.741
			l-0.022,0.219l-0.132,0.108v0.394l-0.284,0.305l-0.35,0.96l0.021,0.262l-0.175,0.393l0.065,0.479l-0.132,0.065l-0.043,0.611
			l0.021,0.109l0.264,0.261l0.11,0.458l0.308,0.088l0.022,0.175l0.37,0.074l0.284,0.075c0.102-0.059,0.227-0.088,0.372-0.088h0.152
			c0.176-0.073,0.336-0.109,0.481-0.109c0.103-0.044,0.233-0.088,0.394-0.131c0.175-0.233,0.423-0.351,0.744-0.351h0.131
			c0.073,0,0.124-0.036,0.153-0.109c0.16-0.248,0.415-0.408,0.766-0.481c0.408-0.364,0.642-0.656,0.699-0.875
			c0.204-0.116,0.336-0.299,0.394-0.547l0.132-0.088l0.065-0.503c0.671,0.103,1.006,0.438,1.006,1.007V80.728z"/>
		<path fill="#434142" d="M233.968,79.021l-0.131,0.395c0,0.379-0.022,0.678-0.066,0.896l-0.131,0.219v0.241l-0.109,0.153
			l-0.065,0.306l-0.241,0.241l-0.153,0.547l-0.175,0.065l-0.087,0.24l-0.263,0.153l-0.175,0.372l-0.263,0.131l-0.022,0.263
			l-0.415,0.153c-0.19,0.263-0.424,0.431-0.7,0.503l-0.088,0.022c-0.204,0.306-0.474,0.459-0.81,0.459
			c-0.146,0.088-0.313,0.132-0.503,0.132l-0.219,0.152l-0.219,0.066l-0.284,0.219h-0.285l-0.306,0.065l-0.372-0.153l-0.94-0.065
			l-0.328-0.503l-0.481-0.504l0.109-0.35l-0.328-0.744l0.109-0.284l-0.066-0.525l0.066-0.328c0-0.204,0-0.35,0-0.438
			c0-0.276,0.075-0.481,0.227-0.612c0.015-0.146,0.113-0.387,0.295-0.722h0.112l-0.065-0.153l0.065-0.307v-0.328
			c0.117-0.131,0.183-0.219,0.197-0.263l-0.065-0.306v-0.088c0.102-0.204,0.153-0.416,0.153-0.635l0.459-0.634
			c0.073-0.059,0.124-0.103,0.153-0.132l-0.022-0.087h0.088l0.328-0.372l0.022-0.504l0.547-0.196
			c0.204-0.132,0.335-0.351,0.394-0.656h0.284c0.16-0.088,0.307-0.132,0.438-0.132c0.132,0,0.255,0.029,0.372,0.088l0.24,0.021
			l0.569-0.219l0.307,0.285l0.24,0.152h0.175l0.328,0.176h0.175c0.189,0.175,0.408,0.415,0.657,0.722l0.043,0.109l0.153,0.088
			l0.46,0.59l0.415,1.028v0.219L233.968,79.021z M232.523,79.539l-0.021-0.109c-0.103-0.103-0.161-0.211-0.175-0.328l0.065-0.108
			l-0.197-0.415l0.044-0.414l-0.087-0.109c-0.19-0.146-0.292-0.262-0.307-0.35c-0.132-0.058-0.197-0.203-0.197-0.437l-0.131-0.021
			l-0.263-0.437l-0.197-0.153l-0.459-0.175l-0.175-0.043c-0.088,0-0.146-0.029-0.176-0.088l-0.438,0.479l-0.284,0.608l-0.459,0.239
			l-0.066,0.24l-0.219,0.108l-0.087,0.565l-0.263,0.13c-0.059,0.203-0.088,0.392-0.088,0.565l-0.35,0.326l0.109,0.065
			c0,0.174-0.073,0.326-0.22,0.457c-0.05,0.13-0.114,0.275-0.196,0.435v0.174v0.087v0.261l-0.24,0.587l0.044,0.109v0.608
			l-0.088,0.305l0.021,0.305l0.197,0.282l0.306,0.108l0.109,0.044h0.175h0.567l0.088-0.219h0.087c0.088,0,0.139,0.021,0.153,0.065
			l0.196-0.065l0.175,0.065l0.284-0.198l0.044-0.066l0.196-0.044c0.102-0.161,0.343-0.323,0.721-0.485l0.044-0.109l0.438-0.31
			l0.24-0.353l0.35-0.175l0.023-0.109l0.113-0.24v-0.283l0.263-0.219l0.088-0.152l0.109-0.131c-0.059-0.175-0.088-0.299-0.088-0.371
			c0-0.131,0.044-0.27,0.132-0.415L232.523,79.539z"/>
		<path fill="#434142" d="M249.544,80.596c0,0.117-0.096,0.271-0.284,0.46l-0.241,0.372l-0.088,0.438l-0.196,0.065l-0.044,0.131
			c-0.233,0.073-0.401,0.256-0.503,0.548c-0.161,0.204-0.336,0.35-0.525,0.438c-0.073,0.073-0.139,0.124-0.196,0.152l-0.11,0.197
			l-0.196,0.044l-0.569,0.306l-0.743,0.088l-0.197-0.044l-0.328,0.066l-0.131-0.153c-0.205-0.103-0.351-0.204-0.438-0.307
			c-0.176-0.044-0.307-0.183-0.395-0.416c-0.248-0.291-0.372-0.524-0.372-0.699v-0.066l-0.152-0.263l-0.044-0.043l-0.132-0.395
			l-0.196-0.415l0.044-0.504l-0.219-0.284l-0.328-1.881c-0.044-0.248-0.066-0.46-0.066-0.635l-0.044-0.109l-0.111-0.153
			l-0.199,0.261l-0.798,0.826l-0.288,0.457l-0.141,0.312l-0.237,0.351l-0.172,0.175l0.021,0.109l-0.307,0.679l-0.175,0.219
			l-0.219,0.044l-0.196,0.197c0,0.292-0.14,0.481-0.416,0.569l-0.044,0.043c-0.131,0.322-0.277,0.519-0.438,0.592l-0.197,0.307
			c-0.32,0.292-0.532,0.474-0.634,0.547c-0.044,0.146-0.124,0.271-0.241,0.372c-0.029,0.044-0.08,0.103-0.153,0.176
			c-0.043,0.248-0.248,0.423-0.612,0.525l-0.24,0.065c-0.292-0.015-0.533-0.183-0.723-0.503l-0.328-0.548l0.132-0.524l-0.065-0.284
			l0.043-0.044l0.022-0.285l-0.241-0.524l0.176-0.263l-0.088-0.284l0.17-0.307l0.049-0.503l-0.065-0.088l0.131-0.306l-0.049-0.153
			l-0.017-0.351l0.065-0.656c-0.044-0.146-0.065-0.24-0.065-0.284c0-0.029,0-0.059,0-0.088c0-0.043,0-0.072,0-0.087l-0.065-0.175
			l0.065-0.7v-0.241v-0.35v-0.591l0.383-0.656c0.439,0.073,0.745,0.172,0.915,0.295c0.17,0.124,0.256,0.347,0.256,0.668v0.196
			l0.175,0.263l-0.088,0.459l0.088,0.876l-0.153,0.415l0.065,0.46v0.372l-0.196,0.24l0.196,0.394l-0.169,0.241l-0.027,0.24
			l0.131,0.241l-0.175,0.459l-0.065,0.197v0.196l0.109,0.219l0.371-0.372c0-0.219,0.073-0.364,0.219-0.438
			c0.015-0.146,0.073-0.255,0.176-0.328l-0.066-0.065l0.285-0.263l0.065-0.087v-0.197l0.35-0.263l0.088-0.219l0.197-0.131
			l0.853-0.963c-0.073,0.088-0.313,0.357-0.722,0.81v0.044l0.044-0.153l0.284-0.328l0.197-0.372v-0.219l0.328-0.109l0.044-0.284
			l0.087-0.088l0.022-0.109v-0.153l0.306-0.306c0-0.029,0-0.066,0-0.109c-0.015-0.044-0.021-0.073-0.021-0.088
			c0-0.263,0.146-0.408,0.438-0.438c0.131-0.263,0.328-0.416,0.591-0.459l0.131-0.197l0.044-0.044
			c0.131-0.189,0.328-0.32,0.591-0.394l0.196-0.241h0.525l0.263,0.307l0.24,0.131l0.022,0.066l0.153,0.043l0.043,0.46l0.372,0.219
			l-0.153,0.481l0.241,0.524v0.613l0.175,0.831l0.044,0.788l0.197,0.459l0.131,0.569c0.088,0.087,0.153,0.211,0.197,0.371
			l0.394,0.109v0.438l0.219,0.241v0.065l0.087,0.021l0.088,0.132l0.088-0.109c-0.029,0,0.007,0.008,0.109,0.021
			c0.16,0,0.328-0.146,0.503-0.438l0.264-0.059l0.065-0.111c0.044-0.119,0.132-0.208,0.263-0.268l0.153,0.022l0.087-0.088
			l0.022-0.109l0.065-0.088c0.146-0.102,0.24-0.255,0.284-0.459l0.24-0.263l0.044-0.197l0.153-0.35l0.415-0.153l0.591,0.197
			l0.196,0.634c0,0.016,0.008,0.03,0.022,0.044C249.544,80.56,249.544,80.582,249.544,80.596z"/>
		<path fill="#434142" d="M269.781,80.596c0,0.117-0.096,0.271-0.284,0.46l-0.241,0.372l-0.088,0.438l-0.196,0.065l-0.044,0.131
			c-0.233,0.073-0.401,0.256-0.503,0.548c-0.161,0.204-0.336,0.35-0.525,0.438c-0.073,0.073-0.139,0.124-0.196,0.152l-0.11,0.197
			l-0.196,0.044l-0.569,0.306l-0.743,0.088l-0.197-0.044l-0.328,0.066l-0.131-0.153c-0.205-0.103-0.351-0.204-0.438-0.307
			c-0.176-0.044-0.307-0.183-0.395-0.416c-0.248-0.291-0.372-0.524-0.372-0.699v-0.066l-0.152-0.263l-0.044-0.043l-0.132-0.395
			l-0.196-0.415l0.044-0.504l-0.219-0.284l-0.328-1.881c-0.044-0.248-0.066-0.46-0.066-0.635l-0.044-0.109l-0.111-0.153
			l-0.199,0.261l-0.798,0.826l-0.288,0.457l-0.141,0.312l-0.237,0.351l-0.172,0.175l0.021,0.109l-0.307,0.679l-0.175,0.219
			l-0.219,0.044l-0.196,0.197c0,0.292-0.14,0.481-0.416,0.569l-0.044,0.043c-0.131,0.322-0.277,0.519-0.438,0.592l-0.197,0.307
			c-0.32,0.292-0.532,0.474-0.634,0.547c-0.044,0.146-0.124,0.271-0.241,0.372c-0.029,0.044-0.08,0.103-0.153,0.176
			c-0.043,0.248-0.248,0.423-0.612,0.525l-0.24,0.065c-0.292-0.015-0.533-0.183-0.723-0.503l-0.328-0.548l0.132-0.524l-0.065-0.284
			l0.043-0.044l0.022-0.285l-0.241-0.524l0.176-0.263l-0.088-0.284l0.17-0.307l0.049-0.503l-0.065-0.088l0.131-0.306l-0.049-0.153
			l-0.017-0.351l0.065-0.656c-0.044-0.146-0.065-0.24-0.065-0.284c0-0.029,0-0.059,0-0.088c0-0.043,0-0.072,0-0.087l-0.065-0.175
			l0.065-0.7v-0.241v-0.35v-0.591l0.383-0.656c0.439,0.073,0.745,0.172,0.915,0.295c0.17,0.124,0.256,0.347,0.256,0.668v0.196
			l0.175,0.263l-0.088,0.459l0.088,0.876l-0.153,0.415l0.065,0.46v0.372l-0.196,0.24l0.196,0.394l-0.169,0.241l-0.027,0.24
			l0.131,0.241l-0.175,0.459l-0.065,0.197v0.196l0.109,0.219l0.371-0.372c0-0.219,0.073-0.364,0.219-0.438
			c0.015-0.146,0.073-0.255,0.176-0.328l-0.066-0.065l0.285-0.263l0.065-0.087v-0.197l0.35-0.263l0.088-0.219l0.197-0.131
			l0.853-0.963c-0.073,0.088-0.313,0.357-0.722,0.81v0.044l0.044-0.153l0.284-0.328l0.197-0.372v-0.219l0.328-0.109l0.044-0.284
			l0.087-0.088l0.022-0.109v-0.153l0.306-0.306c0-0.029,0-0.066,0-0.109c-0.015-0.044-0.021-0.073-0.021-0.088
			c0-0.263,0.146-0.408,0.438-0.438c0.131-0.263,0.328-0.416,0.591-0.459l0.131-0.197l0.044-0.044
			c0.131-0.189,0.328-0.32,0.591-0.394l0.196-0.241h0.525l0.263,0.307l0.24,0.131l0.022,0.066l0.153,0.043l0.043,0.46l0.372,0.219
			l-0.153,0.481l0.241,0.524v0.613l0.175,0.831l0.044,0.788l0.197,0.459l0.131,0.569c0.088,0.087,0.153,0.211,0.197,0.371
			l0.394,0.109v0.438l0.219,0.241v0.065l0.087,0.021l0.088,0.132l0.088-0.109c-0.029,0,0.007,0.008,0.109,0.021
			c0.16,0,0.328-0.146,0.503-0.438l0.264-0.059l0.065-0.111c0.044-0.119,0.132-0.208,0.263-0.268l0.153,0.022l0.087-0.088
			l0.022-0.109l0.065-0.088c0.146-0.102,0.24-0.255,0.284-0.459l0.24-0.263l0.044-0.197l0.153-0.35l0.415-0.153l0.591,0.197
			l0.196,0.634c0,0.016,0.008,0.03,0.022,0.044C269.781,80.56,269.781,80.582,269.781,80.596z"/>
		<path fill="#434142" d="M278.204,79.021l-0.131,0.395c0,0.379-0.022,0.678-0.066,0.896l-0.131,0.219v0.241l-0.109,0.153
			l-0.065,0.306l-0.241,0.241l-0.153,0.547l-0.175,0.065l-0.087,0.24l-0.263,0.153l-0.175,0.372l-0.263,0.131l-0.022,0.263
			l-0.415,0.153c-0.19,0.263-0.424,0.431-0.7,0.503l-0.088,0.022c-0.204,0.306-0.474,0.459-0.81,0.459
			c-0.146,0.088-0.313,0.132-0.503,0.132l-0.219,0.152l-0.219,0.066l-0.284,0.219H272.8l-0.306,0.065l-0.372-0.153l-0.94-0.065
			l-0.328-0.503l-0.481-0.504l0.109-0.35l-0.328-0.744l0.109-0.284l-0.066-0.525l0.066-0.328c0-0.204,0-0.35,0-0.438
			c0-0.276,0.075-0.481,0.227-0.612c0.015-0.146,0.113-0.387,0.295-0.722h0.112l-0.065-0.153l0.065-0.307v-0.328
			c0.117-0.131,0.183-0.219,0.197-0.263l-0.065-0.306v-0.088c0.102-0.204,0.153-0.416,0.153-0.635l0.459-0.634
			c0.073-0.059,0.124-0.103,0.153-0.132l-0.022-0.087h0.088l0.328-0.372l0.022-0.504l0.547-0.196
			c0.204-0.132,0.335-0.351,0.394-0.656h0.284c0.16-0.088,0.307-0.132,0.438-0.132c0.132,0,0.255,0.029,0.372,0.088l0.24,0.021
			l0.569-0.219l0.307,0.285l0.24,0.152h0.175l0.328,0.176h0.175c0.189,0.175,0.408,0.415,0.657,0.722l0.043,0.109l0.153,0.088
			l0.46,0.59l0.415,1.028v0.219L278.204,79.021z M276.76,79.539l-0.021-0.109c-0.103-0.103-0.161-0.211-0.175-0.328l0.065-0.108
			l-0.197-0.415l0.044-0.414l-0.087-0.109c-0.19-0.146-0.292-0.262-0.307-0.35c-0.132-0.058-0.197-0.203-0.197-0.437l-0.131-0.021
			l-0.263-0.437l-0.197-0.153l-0.459-0.175l-0.175-0.043c-0.088,0-0.146-0.029-0.176-0.088l-0.438,0.479l-0.284,0.608l-0.459,0.239
			l-0.066,0.24l-0.219,0.108l-0.087,0.565l-0.263,0.13c-0.059,0.203-0.088,0.392-0.088,0.565l-0.35,0.326l0.109,0.065
			c0,0.174-0.073,0.326-0.22,0.457c-0.05,0.13-0.114,0.275-0.196,0.435v0.174v0.087v0.261l-0.24,0.587l0.044,0.109v0.608
			l-0.088,0.305l0.021,0.305l0.197,0.282l0.306,0.108l0.109,0.044h0.175h0.567l0.088-0.219h0.087c0.088,0,0.139,0.021,0.153,0.065
			l0.196-0.065l0.175,0.065L274,83.089l0.044-0.066l0.196-0.044c0.102-0.161,0.343-0.323,0.721-0.485l0.044-0.109l0.438-0.31
			l0.24-0.353l0.35-0.175l0.023-0.109l0.113-0.24v-0.283l0.263-0.219l0.088-0.152l0.109-0.131c-0.059-0.175-0.088-0.299-0.088-0.371
			c0-0.131,0.044-0.27,0.132-0.415L276.76,79.539z"/>
		<path fill="#434142" d="M288.027,82.347l-0.263,0.306l-0.24,0.569l-0.176,0.131l-0.152,0.307l-0.438,0.044l-0.284,0.284h-0.438
			l-0.263,0.219l-0.24-0.065l-0.284,0.065v0.175l-0.81-0.065h-0.351l-0.263,0.153l-0.219-0.132c0.146-0.015,0.263-0.021,0.351-0.021
			c-0.117,0.011-0.467,0.033-1.05,0.065l-0.066-0.032l-0.175-0.033l-0.284,0.153c-0.088-0.037-0.248-0.079-0.481-0.126
			c-0.321-0.019-0.532-0.027-0.635-0.027h-0.175c-0.103-0.044-0.212-0.065-0.328-0.065c-0.117,0-0.233,0.021-0.35,0.065
			l-0.307-0.195l-0.175-0.043c-0.044,0-0.124-0.021-0.241-0.065c-0.539-0.058-0.81-0.506-0.81-1.344v-0.195l0.416-0.303l0.525-0.195
			l0.394,0.196h0.307v0.066c0.146,0.059,0.262,0.175,0.35,0.35l0.175,0.022v0.284l0.285,0.065l0.065,0.044l2.8-0.175l0.679-0.109
			h0.065l0.044-0.109l0.306-0.044l0.044-0.065c0.307-0.044,0.591-0.132,0.854-0.263l0.021-0.109
			c-0.015-0.015-0.043-0.066-0.087-0.153l-0.109,0.021l-0.284-0.219h-0.197l-0.109-0.153l0.065-0.087l-0.24,0.044l-0.176-0.176
			c-0.043,0-0.116,0-0.219,0c-0.189,0-0.379-0.036-0.568-0.109h-0.197l-0.153-0.065l-0.306,0.109l-0.175-0.196h-0.066l-0.306-0.241
			l-0.679-0.263l-0.219-0.175l-0.831-0.153l-0.088-0.153l-0.612-0.394l-0.328-0.722l-0.263-0.372l-0.087-1.138l0.087-0.131
			c0.029-0.336,0.146-0.627,0.351-0.875c0.219-0.117,0.328-0.285,0.328-0.504l0.328-0.065c0.058-0.116,0.175-0.226,0.35-0.328
			l0.328-0.263l1.379-0.524l0.24-0.066l0.438-0.043l0.722-0.197l1.379,0.087l0.044,0.11c0.131,0.043,0.276,0.16,0.438,0.35v0.109
			l0.35,0.219l-0.153,0.525l-0.044,0.196c-0.087,0.365-0.292,0.547-0.612,0.547c-0.263,0-0.459-0.123-0.591-0.371v-0.066
			l-0.256,0.002l-0.308,0.084l-0.286-0.217l-0.153,0.113c-0.19,0-0.367,0.062-0.528,0.183c-0.22,0-0.433,0.091-0.638,0.272
			l-0.286-0.006l-0.197,0.131l-0.305,0.065l-0.044,0.044l-0.131,0.065l-0.196,0.198l-0.065,0.021l-0.195,0.308l-0.24,0.132
			c-0.058,0.189-0.095,0.351-0.108,0.482c0.014,0.204,0.04,0.34,0.076,0.405c0.036,0.066,0.135,0.136,0.296,0.209v0.109l0.284,0.153
			c0.233,0.088,0.409,0.184,0.526,0.285l0.438-0.001l0.277,0.249l0.504,0.065l0.197,0.13l0.854,0.238l0.109,0.237l0.087-0.153
			c0.189,0,0.445,0.088,0.767,0.263l0.395,0.065l0.044,0.153h0.351l0.613,0.351c0.073,0.189,0.233,0.364,0.481,0.524l0.241,0.153
			l-0.065,0.263c0.102,0.146,0.153,0.299,0.153,0.46V82.347z"/>
		<path fill="#434142" d="M297.478,79.021l-0.131,0.395c0,0.379-0.022,0.678-0.066,0.896l-0.131,0.219v0.241l-0.109,0.153
			l-0.065,0.306l-0.241,0.241l-0.153,0.547l-0.175,0.065l-0.087,0.24l-0.263,0.153l-0.175,0.372l-0.263,0.131l-0.022,0.263
			l-0.415,0.153c-0.19,0.263-0.424,0.431-0.7,0.503l-0.088,0.022c-0.204,0.306-0.474,0.459-0.81,0.459
			c-0.146,0.088-0.313,0.132-0.503,0.132l-0.219,0.152l-0.219,0.066l-0.284,0.219h-0.285l-0.306,0.065l-0.372-0.153l-0.94-0.065
			l-0.328-0.503l-0.481-0.504l0.109-0.35l-0.328-0.744l0.109-0.284l-0.066-0.525l0.066-0.328c0-0.204,0-0.35,0-0.438
			c0-0.276,0.075-0.481,0.227-0.612c0.015-0.146,0.113-0.387,0.295-0.722h0.112l-0.065-0.153l0.065-0.307v-0.328
			c0.117-0.131,0.183-0.219,0.197-0.263l-0.065-0.306v-0.088c0.102-0.204,0.153-0.416,0.153-0.635l0.459-0.634
			c0.073-0.059,0.124-0.103,0.153-0.132l-0.022-0.087h0.088l0.328-0.372l0.022-0.504l0.547-0.196
			c0.204-0.132,0.335-0.351,0.394-0.656h0.284c0.16-0.088,0.307-0.132,0.438-0.132c0.132,0,0.255,0.029,0.372,0.088l0.24,0.021
			l0.569-0.219l0.307,0.285l0.24,0.152h0.175l0.328,0.176h0.175c0.189,0.175,0.408,0.415,0.657,0.722l0.043,0.109l0.153,0.088
			l0.46,0.59l0.415,1.028v0.219L297.478,79.021z M296.033,79.539l-0.021-0.109c-0.103-0.103-0.161-0.211-0.175-0.328l0.065-0.108
			l-0.197-0.415l0.044-0.414l-0.087-0.109c-0.19-0.146-0.292-0.262-0.307-0.35c-0.132-0.058-0.197-0.203-0.197-0.437l-0.131-0.021
			l-0.263-0.437l-0.197-0.153l-0.459-0.175l-0.175-0.043c-0.088,0-0.146-0.029-0.176-0.088l-0.438,0.479l-0.284,0.608l-0.459,0.239
			l-0.066,0.24l-0.219,0.108l-0.087,0.565l-0.263,0.13c-0.059,0.203-0.088,0.392-0.088,0.565l-0.35,0.326l0.109,0.065
			c0,0.174-0.073,0.326-0.22,0.457c-0.05,0.13-0.114,0.275-0.196,0.435v0.174v0.087v0.261l-0.24,0.587l0.044,0.109v0.608
			l-0.088,0.305l0.021,0.305l0.197,0.282l0.306,0.108l0.109,0.044h0.175h0.567l0.088-0.219h0.087c0.088,0,0.139,0.021,0.153,0.065
			l0.196-0.065l0.175,0.065l0.284-0.198l0.044-0.066l0.196-0.044c0.102-0.161,0.343-0.323,0.721-0.485l0.044-0.109l0.438-0.31
			l0.24-0.353l0.35-0.175l0.023-0.109l0.113-0.24v-0.283l0.263-0.219l0.088-0.152l0.109-0.131c-0.059-0.175-0.088-0.299-0.088-0.371
			c0-0.131,0.044-0.27,0.132-0.415L296.033,79.539z"/>
		<path fill="#434142" d="M305.879,76.286c0,0.132-0.132,0.256-0.395,0.372c-0.058,0.073-0.167,0.139-0.328,0.197
			c-0.204,0.087-0.35,0.16-0.438,0.219l-0.459-0.153c-0.233,0.175-0.533,0.263-0.897,0.263l-0.263-0.066l-0.196,0.153h-0.591
			l-0.372,0.263c-0.16-0.058-0.313-0.088-0.459-0.088c-0.044,0.03-0.146,0.059-0.307,0.088c-0.073,0-0.153-0.021-0.24-0.065
			l-0.066,0.831v0.612v0.765l0.01,0.831l0.066,0.394l-0.01,0.307l0.306,0.657c-0.044,0.044-0.065,0.095-0.065,0.153
			c0,0.103,0.16,0.183,0.481,0.24l0.044,0.264l0.152,0.065l0.263,0.175l0.176,0.132c0.146-0.029,0.247-0.044,0.306-0.044
			c0.132,0,0.263,0.021,0.394,0.065c0.059-0.029,0.183-0.131,0.372-0.306c0.132-0.117,0.255-0.176,0.372-0.176
			c0.015,0,0.036,0,0.065,0s0.052,0,0.066,0c0.131-0.266,0.364-0.44,0.699-0.524c0.307,0,0.562,0.095,0.767,0.284v0.153
			c0,0.496-0.176,0.81-0.525,0.94c-0.132,0.307-0.408,0.503-0.831,0.591l-0.263,0.24h-0.284l-0.504,0.132
			c-0.116,0.029-0.284,0.044-0.503,0.044c-0.117,0-0.24-0.03-0.372-0.088h-0.284L301,83.79l-0.197-0.065l-0.459-0.612l-0.263-0.284
			l-0.481-1.095l-0.175-1.028l0.065-0.262l-0.197-0.241l0.109-0.306l-0.109-0.481l0.153-0.153l0.044-0.284l-0.065-0.263l0.065-0.394
			l-0.109-0.351l0.109-0.109v-0.35l-0.153-0.066l-0.415,0.088l-0.395-0.263h-0.065c-0.438,0-0.656-0.236-0.656-0.709v-0.067
			l-0.263-0.421l0.416-0.399l0.547,0.087l0.284-0.043l0.416,0.109h0.459V75.39l-0.284-0.613l0.284-0.153l-0.109-0.328l0.022-0.678
			l-0.176-0.284c-0.102-0.16-0.152-0.307-0.152-0.438c0-0.161,0.036-0.292,0.109-0.395l0.065-0.306l0.175-0.175
			c0.394-0.073,0.656-0.109,0.787-0.109c0.467,0,0.723,0.212,0.767,0.638l-0.066,0.109c0.088,0.133,0.132,0.257,0.132,0.374
			c0,0.015-0.008,0.052-0.022,0.11l-0.043,0.132l-0.022,0.154l0.088,0.286l-0.022,0.109l0.044,0.308l-0.196,0.265l0.109,0.439
			l-0.088,0.528l0.175,0.198l-0.175,0.396l0.678-0.109l1.204,0.109l0.962-0.153l0.328,0.022l0.109-0.022h0.854
			C305.652,75.805,305.879,75.966,305.879,76.286z"/>
		<path fill="#434142" d="M315.111,76.002l-0.175,0.722l-0.81,0.109l-0.438,0.284l-0.285-0.131l-0.306,0.171l-0.328,0.128
			l-0.219,0.149l-0.008,0.085l-0.455,0.228l-0.306,0.398h-0.153c-0.232,0.248-0.4,0.401-0.502,0.46l-0.307,0.503l-0.109,0.044
			c-0.043,0.117-0.095,0.292-0.152,0.525l-0.307,0.109l-0.131,0.262l-0.175,0.219l-0.043,0.328l-0.175,0.066v0.328l-0.065,0.065
			c0.043,0.073,0.094,0.153,0.152,0.24l-0.328,0.132l-0.044,0.284l-0.219,0.372l0.132,0.284l-0.284,0.394
			c0.028,0.146,0.043,0.249,0.043,0.307c0,0.015,0,0.044,0,0.088c-0.015,0.043-0.021,0.08-0.021,0.109l0.044,0.196l0.372,0.395
			l-0.285,0.503l-0.262,0.196l-0.613,0.307l-0.81-0.328v-0.503l-0.087-0.197l0.065-0.328c-0.029-0.233-0.044-0.408-0.044-0.525
			c0-0.043,0.008-0.102,0.022-0.175c0-0.072,0-0.124,0-0.153l-0.022-0.219c-0.102-0.102-0.153-0.219-0.153-0.35
			c0-0.116,0.052-0.248,0.153-0.394c0-0.073-0.015-0.292-0.044-0.656l0.066-0.066l-0.066-0.284l0.044-0.263l-0.044-0.153
			l0.066-0.503l-0.132-0.219l0.088-0.24l-0.088-0.285c0.015-0.087,0.022-0.204,0.022-0.35c0-0.219-0.029-0.364-0.088-0.438
			l0.088-0.131l-0.088-0.395l-0.197-0.284l0.109-0.35l-0.087-0.132l-0.088-0.524v-0.176c-0.073-0.087-0.109-0.196-0.109-0.328
			c0-0.291,0.32-0.539,0.963-0.743l0.547,0.109l0.109,0.415l0.219,0.284l-0.065,0.591c0.044,0.292,0.095,0.613,0.153,0.963
			l0.065,0.351c0.015,0.029,0.029,0.109,0.044,0.24c0,0.088-0.037,0.183-0.109,0.284l0.065,0.438l-0.044,0.481l-0.088,0.219
			l0.066,0.088l0.043,0.219c0.088-0.103,0.139-0.212,0.153-0.328l0.088-0.328c0.044-0.088,0.109-0.153,0.196-0.197l0.088-0.328
			l0.307-0.175l0.044-0.263l0.24-0.263l0.175-0.328c0.189-0.204,0.372-0.335,0.547-0.394l0.044-0.065l0.197-0.307l0.219-0.044
			l0.065-0.065l0.088-0.131l0.24-0.132l0.131-0.153l0.132,0.022l0.175-0.088l0.088-0.131l0.262-0.132l0.372-0.24l0.525-0.175
			c0.204-0.029,0.313-0.044,0.328-0.044v0.021c-0.015,0-0.021,0.008-0.021,0.022h0.021c0.059,0,0.146-0.029,0.263-0.088
			c0.072-0.059,0.175-0.088,0.307-0.088c0.058,0,0.16,0.015,0.306,0.044C314.855,75.491,315.067,75.666,315.111,76.002z"/>
		<path fill="#434142" d="M323.074,79.021l-0.131,0.395c0,0.379-0.022,0.678-0.066,0.896l-0.131,0.219v0.241l-0.109,0.153
			l-0.065,0.306l-0.241,0.241l-0.153,0.547l-0.175,0.065l-0.087,0.24l-0.263,0.153l-0.175,0.372l-0.263,0.131l-0.022,0.263
			l-0.415,0.153c-0.19,0.263-0.424,0.431-0.7,0.503l-0.088,0.022c-0.204,0.306-0.474,0.459-0.81,0.459
			c-0.146,0.088-0.313,0.132-0.503,0.132l-0.219,0.152l-0.219,0.066l-0.284,0.219h-0.285l-0.306,0.065l-0.372-0.153l-0.94-0.065
			l-0.328-0.503l-0.481-0.504l0.109-0.35l-0.328-0.744l0.109-0.284l-0.066-0.525l0.066-0.328c0-0.204,0-0.35,0-0.438
			c0-0.276,0.075-0.481,0.227-0.612c0.015-0.146,0.113-0.387,0.295-0.722h0.112l-0.065-0.153l0.065-0.307v-0.328
			c0.117-0.131,0.183-0.219,0.197-0.263l-0.065-0.306v-0.088c0.102-0.204,0.153-0.416,0.153-0.635l0.459-0.634
			c0.073-0.059,0.124-0.103,0.153-0.132l-0.022-0.087h0.088l0.328-0.372l0.022-0.504l0.547-0.196
			c0.204-0.132,0.335-0.351,0.394-0.656h0.284c0.16-0.088,0.307-0.132,0.438-0.132c0.132,0,0.255,0.029,0.372,0.088l0.24,0.021
			l0.569-0.219l0.307,0.285l0.24,0.152h0.175l0.328,0.176h0.175c0.189,0.175,0.408,0.415,0.657,0.722l0.043,0.109l0.153,0.088
			l0.46,0.59l0.415,1.028v0.219L323.074,79.021z M321.63,79.539l-0.021-0.109c-0.103-0.103-0.161-0.211-0.175-0.328l0.065-0.108
			l-0.197-0.415l0.044-0.414l-0.087-0.109c-0.19-0.146-0.292-0.262-0.307-0.35c-0.132-0.058-0.197-0.203-0.197-0.437l-0.131-0.021
			l-0.263-0.437l-0.197-0.153l-0.459-0.175l-0.175-0.043c-0.088,0-0.146-0.029-0.176-0.088l-0.438,0.479l-0.284,0.608l-0.459,0.239
			l-0.066,0.24l-0.219,0.108l-0.087,0.565l-0.263,0.13c-0.059,0.203-0.088,0.392-0.088,0.565l-0.35,0.326l0.109,0.065
			c0,0.174-0.073,0.326-0.22,0.457c-0.05,0.13-0.114,0.275-0.196,0.435v0.174v0.087v0.261l-0.24,0.587l0.044,0.109v0.608
			l-0.088,0.305l0.021,0.305l0.197,0.282l0.306,0.108l0.109,0.044h0.175h0.567l0.088-0.219h0.087c0.088,0,0.139,0.021,0.153,0.065
			l0.196-0.065l0.175,0.065l0.284-0.198l0.044-0.066l0.196-0.044c0.102-0.161,0.343-0.323,0.721-0.485l0.044-0.109l0.438-0.31
			l0.24-0.353l0.35-0.175l0.023-0.109l0.113-0.24v-0.283l0.263-0.219l0.088-0.152l0.109-0.131c-0.059-0.175-0.088-0.299-0.088-0.371
			c0-0.131,0.044-0.27,0.132-0.415L321.63,79.539z"/>
		<path fill="#434142" d="M332.897,82.347l-0.263,0.306l-0.24,0.569l-0.176,0.131l-0.152,0.307l-0.438,0.044l-0.284,0.284h-0.438
			l-0.263,0.219l-0.24-0.065l-0.284,0.065v0.175l-0.81-0.065h-0.351l-0.263,0.153l-0.219-0.132c0.146-0.015,0.263-0.021,0.351-0.021
			c-0.117,0.011-0.467,0.033-1.05,0.065l-0.066-0.032l-0.175-0.033l-0.284,0.153c-0.088-0.037-0.248-0.079-0.481-0.126
			c-0.321-0.019-0.532-0.027-0.635-0.027h-0.175c-0.103-0.044-0.212-0.065-0.328-0.065c-0.117,0-0.233,0.021-0.35,0.065
			l-0.307-0.195l-0.175-0.043c-0.044,0-0.124-0.021-0.241-0.065c-0.539-0.058-0.81-0.506-0.81-1.344v-0.195l0.416-0.303l0.525-0.195
			l0.394,0.196h0.307v0.066c0.146,0.059,0.262,0.175,0.35,0.35l0.175,0.022v0.284l0.285,0.065l0.065,0.044l2.8-0.175l0.679-0.109
			h0.065l0.044-0.109l0.306-0.044l0.044-0.065c0.307-0.044,0.591-0.132,0.854-0.263l0.021-0.109
			c-0.015-0.015-0.043-0.066-0.087-0.153l-0.109,0.021l-0.284-0.219h-0.197l-0.109-0.153l0.065-0.087l-0.24,0.044l-0.176-0.176
			c-0.043,0-0.116,0-0.219,0c-0.189,0-0.379-0.036-0.568-0.109h-0.197l-0.153-0.065L328.5,81.34l-0.175-0.196h-0.066l-0.306-0.241
			l-0.679-0.263l-0.219-0.175l-0.831-0.153l-0.088-0.153l-0.612-0.394l-0.328-0.722l-0.263-0.372l-0.087-1.138l0.087-0.131
			c0.029-0.336,0.146-0.627,0.351-0.875c0.219-0.117,0.328-0.285,0.328-0.504l0.328-0.065c0.058-0.116,0.175-0.226,0.35-0.328
			l0.328-0.263l1.379-0.524l0.24-0.066l0.438-0.043l0.722-0.197l1.379,0.087l0.044,0.11c0.131,0.043,0.276,0.16,0.438,0.35v0.109
			l0.35,0.219l-0.153,0.525l-0.044,0.196c-0.087,0.365-0.292,0.547-0.612,0.547c-0.263,0-0.459-0.123-0.591-0.371v-0.066
			l-0.256,0.002l-0.308,0.084l-0.286-0.217l-0.153,0.113c-0.19,0-0.367,0.062-0.528,0.183c-0.22,0-0.433,0.091-0.638,0.272
			l-0.286-0.006l-0.197,0.131l-0.305,0.065l-0.044,0.044l-0.131,0.065l-0.196,0.198l-0.065,0.021l-0.195,0.308l-0.24,0.132
			c-0.058,0.189-0.095,0.351-0.108,0.482c0.014,0.204,0.04,0.34,0.076,0.405c0.036,0.066,0.135,0.136,0.296,0.209v0.109l0.284,0.153
			c0.233,0.088,0.409,0.184,0.526,0.285l0.438-0.001l0.277,0.249l0.504,0.065l0.197,0.13l0.854,0.238l0.109,0.237l0.087-0.153
			c0.189,0,0.445,0.088,0.767,0.263l0.395,0.065l0.044,0.153h0.351l0.613,0.351c0.073,0.189,0.233,0.364,0.481,0.524l0.241,0.153
			l-0.065,0.263c0.102,0.146,0.153,0.299,0.153,0.46V82.347z"/>
	</g>
	<linearGradient id="SVGID_1_" gradientUnits="userSpaceOnUse" x1="116.4154" y1="66.9511" x2="116.4154" y2="38.8926">
		<stop  offset="0.4991" style="stop-color:#1A1A1A"/>
		<stop  offset="0.6841" style="stop-color:#313131"/>
		<stop  offset="0.8558" style="stop-color:#404040"/>
		<stop  offset="1" style="stop-color:#454545"/>
	</linearGradient>
	<path fill="url(#SVGID_1_)" d="M103.604,38.893h7.973l5.409,7.648l5.381-7.648h7.84l-9.291,13.204l9.196,14.854h-7.973l-5.2-9.203
		l-6.476,9.203h-7.841l10.387-14.76L103.604,38.893z"/>
	<linearGradient id="SVGID_2_" gradientUnits="userSpaceOnUse" x1="145.9891" y1="84.1405" x2="145.9891" y2="38.1709">
		<stop  offset="0.4991" style="stop-color:#1A1A1A"/>
		<stop  offset="0.6841" style="stop-color:#313131"/>
		<stop  offset="0.8558" style="stop-color:#404040"/>
		<stop  offset="1" style="stop-color:#454545"/>
	</linearGradient>
	<path fill="url(#SVGID_2_)" d="M138.645,38.893v3.095c1.241-1.272,2.582-2.226,4.024-2.862c1.442-0.636,2.985-0.954,4.628-0.954
		c3.571,0,6.606,1.384,9.105,4.152c2.498,2.768,3.748,6.318,3.748,10.651c0,4.178-1.292,7.672-3.874,10.483
		c-2.582,2.811-5.643,4.216-9.181,4.216c-1.576,0-3.043-0.288-4.402-0.864c-1.358-0.576-2.708-1.517-4.049-2.824v20.155h-6.816
		V38.893H138.645z M145.863,44.669c-2.163,0-3.958,0.757-5.383,2.269c-1.425,1.513-2.138,3.49-2.138,5.932
		c0,2.493,0.713,4.509,2.138,6.047c1.425,1.539,3.22,2.308,5.383,2.308c2.096,0,3.861-0.782,5.295-2.347
		c1.433-1.564,2.15-3.559,2.15-5.983c0-2.407-0.704-4.38-2.113-5.919C149.787,45.439,148.009,44.669,145.863,44.669z"/>
	<linearGradient id="SVGID_3_" gradientUnits="userSpaceOnUse" x1="168.4785" y1="66.9511" x2="168.4785" y2="38.1709">
		<stop  offset="0.4991" style="stop-color:#1A1A1A"/>
		<stop  offset="0.6841" style="stop-color:#313131"/>
		<stop  offset="0.8558" style="stop-color:#404040"/>
		<stop  offset="1" style="stop-color:#454545"/>
	</linearGradient>
	<path fill="url(#SVGID_3_)" d="M161.134,38.893h5.885v3.533c0.637-1.393,1.484-2.45,2.54-3.172
		c1.056-0.722,2.213-1.083,3.471-1.083c0.888,0,1.819,0.241,2.792,0.722l-2.138,6.061c-0.805-0.413-1.467-0.619-1.987-0.619
		c-1.057,0-1.949,0.67-2.679,2.011c-0.73,1.341-1.094,3.971-1.094,7.891l0.025,1.367v11.347h-6.816V38.893z"/>
	<linearGradient id="SVGID_4_" gradientUnits="userSpaceOnUse" x1="189.2068" y1="67.6732" x2="189.2068" y2="38.1709">
		<stop  offset="0.4991" style="stop-color:#1A1A1A"/>
		<stop  offset="0.6841" style="stop-color:#313131"/>
		<stop  offset="0.8558" style="stop-color:#404040"/>
		<stop  offset="1" style="stop-color:#454545"/>
	</linearGradient>
	<path fill="url(#SVGID_4_)" d="M203.544,54.959h-22.059c0.318,1.995,1.17,3.581,2.553,4.758c1.383,1.177,3.148,1.766,5.294,1.766
		c2.566,0,4.77-0.92,6.615-2.759l5.785,2.785c-1.442,2.097-3.169,3.649-5.182,4.655c-2.012,1.006-4.401,1.509-7.168,1.509
		c-4.293,0-7.789-1.388-10.489-4.165c-2.7-2.776-4.05-6.253-4.05-10.431c0-4.281,1.346-7.835,4.037-10.664
		c2.691-2.828,6.066-4.242,10.124-4.242c4.31,0,7.814,1.414,10.514,4.242c2.699,2.829,4.049,6.563,4.049,11.205L203.544,54.959z
		 M196.677,49.415c-0.453-1.564-1.348-2.837-2.683-3.817c-1.335-0.98-2.885-1.47-4.648-1.47c-1.915,0-3.595,0.55-5.039,1.65
		c-0.907,0.688-1.747,1.9-2.519,3.636H196.677z"/>
	<linearGradient id="SVGID_5_" gradientUnits="userSpaceOnUse" x1="213.5576" y1="67.6732" x2="213.5576" y2="38.1709">
		<stop  offset="0.4991" style="stop-color:#1A1A1A"/>
		<stop  offset="0.6841" style="stop-color:#313131"/>
		<stop  offset="0.8558" style="stop-color:#404040"/>
		<stop  offset="1" style="stop-color:#454545"/>
	</linearGradient>
	<path fill="url(#SVGID_5_)" d="M222.764,42.813l-4.251,4.358c-1.727-1.753-3.295-2.63-4.704-2.63c-0.771,0-1.375,0.167-1.811,0.503
		c-0.436,0.335-0.654,0.752-0.654,1.251c0,0.378,0.139,0.726,0.415,1.044c0.277,0.318,0.96,0.752,2.05,1.302l2.515,1.289
		c2.649,1.341,4.468,2.708,5.458,4.1c0.989,1.393,1.484,3.027,1.484,4.9c0,2.493-0.893,4.573-2.678,6.241
		c-1.786,1.668-4.18,2.501-7.181,2.501c-3.991,0-7.177-1.599-9.558-4.797l4.225-4.719c0.805,0.963,1.748,1.741,2.83,2.334
		c1.081,0.593,2.041,0.889,2.88,0.889c0.905,0,1.635-0.223,2.188-0.671c0.553-0.447,0.83-0.962,0.83-1.547
		c0-1.083-0.998-2.14-2.993-3.172l-2.314-1.186c-4.427-2.286-6.64-5.149-6.64-8.588c0-2.218,0.834-4.113,2.503-5.686
		c1.668-1.573,3.802-2.36,6.401-2.36c1.778,0,3.45,0.4,5.018,1.199C220.344,40.17,221.673,41.317,222.764,42.813z"/>
	<linearGradient id="SVGID_6_" gradientUnits="userSpaceOnUse" x1="238.4869" y1="67.6732" x2="238.4869" y2="38.1709">
		<stop  offset="0.4991" style="stop-color:#1A1A1A"/>
		<stop  offset="0.6841" style="stop-color:#313131"/>
		<stop  offset="0.8558" style="stop-color:#404040"/>
		<stop  offset="1" style="stop-color:#454545"/>
	</linearGradient>
	<path fill="url(#SVGID_6_)" d="M245.781,38.893h6.867v28.058h-6.867v-2.966c-1.34,1.307-2.684,2.248-4.032,2.824
		c-1.349,0.576-2.81,0.864-4.384,0.864c-3.534,0-6.59-1.406-9.17-4.216c-2.579-2.811-3.869-6.305-3.869-10.483
		c0-4.332,1.248-7.883,3.744-10.651c2.496-2.768,5.527-4.152,9.095-4.152c1.641,0,3.182,0.318,4.622,0.954
		c1.441,0.636,2.772,1.591,3.995,2.862V38.893z M238.563,44.669c-2.123,0-3.885,0.77-5.289,2.308
		c-1.404,1.539-2.106,3.512-2.106,5.919c0,2.424,0.714,4.419,2.143,5.983c1.429,1.564,3.188,2.347,5.277,2.347
		c2.156,0,3.945-0.769,5.365-2.308c1.421-1.539,2.131-3.554,2.131-6.047c0-2.441-0.711-4.419-2.131-5.932
		C242.532,45.426,240.735,44.669,238.563,44.669z"/>
	<linearGradient id="SVGID_7_" gradientUnits="userSpaceOnUse" x1="277.4134" y1="66.9511" x2="277.4134" y2="38.1709">
		<stop  offset="0.4991" style="stop-color:#B9007C"/>
		<stop  offset="0.5796" style="stop-color:#BD1B85"/>
		<stop  offset="0.697" style="stop-color:#C23D90"/>
		<stop  offset="0.8091" style="stop-color:#C65598"/>
		<stop  offset="0.9129" style="stop-color:#C8639D"/>
		<stop  offset="1" style="stop-color:#C9689F"/>
	</linearGradient>
	<path fill="url(#SVGID_7_)" d="M256.449,38.893h6.867v3.224c1.174-1.324,2.479-2.312,3.914-2.966
		c1.434-0.653,2.999-0.98,4.694-0.98c1.711,0,3.255,0.43,4.631,1.289c1.376,0.86,2.483,2.115,3.322,3.765
		c1.091-1.651,2.429-2.905,4.014-3.765c1.586-0.859,3.319-1.289,5.198-1.289c1.946,0,3.658,0.464,5.135,1.392
		c1.477,0.928,2.538,2.141,3.184,3.637c0.646,1.496,0.969,3.929,0.969,7.298v16.453h-6.917V52.716c0-3.181-0.386-5.334-1.157-6.46
		c-0.771-1.126-1.928-1.689-3.471-1.689c-1.174,0-2.226,0.344-3.157,1.032c-0.931,0.688-1.622,1.637-2.075,2.85
		c-0.453,1.212-0.679,3.159-0.679,5.841v12.662h-6.917V53.36c0-2.51-0.181-4.328-0.542-5.454c-0.361-1.126-0.903-1.964-1.626-2.514
		c-0.723-0.55-1.597-0.825-2.622-0.825c-1.143,0-2.181,0.348-3.113,1.045c-0.933,0.696-1.631,1.672-2.092,2.927
		c-0.462,1.255-0.693,3.232-0.693,5.931v12.482h-6.867V38.893z"/>
	<linearGradient id="SVGID_8_" gradientUnits="userSpaceOnUse" x1="314.7301" y1="67.6732" x2="314.7301" y2="38.1709">
		<stop  offset="0.4991" style="stop-color:#B9007C"/>
		<stop  offset="0.5796" style="stop-color:#BD1B85"/>
		<stop  offset="0.697" style="stop-color:#C23D90"/>
		<stop  offset="0.8091" style="stop-color:#C65598"/>
		<stop  offset="0.9129" style="stop-color:#C8639D"/>
		<stop  offset="1" style="stop-color:#C9689F"/>
	</linearGradient>
	<path fill="url(#SVGID_8_)" d="M322.024,38.893h6.867v28.058h-6.867v-2.966c-1.34,1.307-2.684,2.248-4.032,2.824
		c-1.349,0.576-2.81,0.864-4.384,0.864c-3.534,0-6.591-1.406-9.17-4.216c-2.579-2.811-3.869-6.305-3.869-10.483
		c0-4.332,1.248-7.883,3.743-10.651c2.496-2.768,5.527-4.152,9.095-4.152c1.641,0,3.182,0.318,4.622,0.954
		c1.441,0.636,2.772,1.591,3.995,2.862V38.893z M314.806,44.669c-2.123,0-3.886,0.77-5.289,2.308
		c-1.404,1.539-2.106,3.512-2.106,5.919c0,2.424,0.714,4.419,2.143,5.983c1.429,1.564,3.188,2.347,5.277,2.347
		c2.156,0,3.945-0.769,5.365-2.308c1.42-1.539,2.131-3.554,2.131-6.047c0-2.441-0.711-4.419-2.131-5.932
		C318.775,45.426,316.979,44.669,314.806,44.669z"/>
	<linearGradient id="SVGID_9_" gradientUnits="userSpaceOnUse" x1="340.2881" y1="67.6732" x2="340.2881" y2="38.1709">
		<stop  offset="0.4991" style="stop-color:#B9007C"/>
		<stop  offset="0.5796" style="stop-color:#BD1B85"/>
		<stop  offset="0.697" style="stop-color:#C23D90"/>
		<stop  offset="0.8091" style="stop-color:#C65598"/>
		<stop  offset="0.9129" style="stop-color:#C8639D"/>
		<stop  offset="1" style="stop-color:#C9689F"/>
	</linearGradient>
	<path fill="url(#SVGID_9_)" d="M349.494,42.813l-4.251,4.358c-1.727-1.753-3.295-2.63-4.703-2.63c-0.771,0-1.375,0.167-1.811,0.503
		c-0.436,0.335-0.654,0.752-0.654,1.251c0,0.378,0.138,0.726,0.415,1.044c0.277,0.318,0.96,0.752,2.05,1.302l2.515,1.289
		c2.649,1.341,4.468,2.708,5.458,4.1c0.989,1.393,1.484,3.027,1.484,4.9c0,2.493-0.893,4.573-2.678,6.241
		c-1.786,1.668-4.18,2.501-7.181,2.501c-3.991,0-7.177-1.599-9.558-4.797l4.225-4.719c0.805,0.963,1.748,1.741,2.83,2.334
		c1.081,0.593,2.041,0.889,2.88,0.889c0.905,0,1.635-0.223,2.188-0.671c0.553-0.447,0.83-0.962,0.83-1.547
		c0-1.083-0.998-2.14-2.993-3.172l-2.314-1.186c-4.427-2.286-6.64-5.149-6.64-8.588c0-2.218,0.834-4.113,2.503-5.686
		c1.668-1.573,3.802-2.36,6.401-2.36c1.777,0,3.45,0.4,5.018,1.199C347.075,40.17,348.404,41.317,349.494,42.813z"/>
	<linearGradient id="SVGID_10_" gradientUnits="userSpaceOnUse" x1="0.0846" y1="38.159" x2="42.9341" y2="38.159">
		<stop  offset="0" style="stop-color:#009ADA"/>
		<stop  offset="1" style="stop-color:#0066AC"/>
	</linearGradient>
	<polygon fill-rule="evenodd" clip-rule="evenodd" fill="url(#SVGID_10_)" points="21.507,57.486 32.221,38.16 42.934,18.832 
		21.507,18.832 0.085,18.832 10.798,38.16 	"/>
	<linearGradient id="SVGID_11_" gradientUnits="userSpaceOnUse" x1="21.4301" y1="38.1849" x2="64.2794" y2="38.1849">
		<stop  offset="0" style="stop-color:#009ADA"/>
		<stop  offset="1" style="stop-color:#0066AC"/>
	</linearGradient>
	<polygon fill-rule="evenodd" clip-rule="evenodd" fill="url(#SVGID_11_)" points="42.853,18.857 53.566,38.185 64.279,57.513 
		42.853,57.513 21.43,57.513 32.143,38.185 	"/>
	<polygon fill-rule="evenodd" clip-rule="evenodd" fill="#EFCE4B" points="21.426,57.513 32.135,76.84 42.849,96.168 21.426,96.168 
		0.003,96.168 10.713,76.84 	"/>
	<polygon fill-rule="evenodd" clip-rule="evenodd" fill="#D78C44" points="42.853,96.166 32.143,76.838 21.43,57.513 42.853,57.513 
		64.279,57.513 53.566,76.838 	"/>
	<polygon fill-rule="evenodd" clip-rule="evenodd" fill="#B9007C" points="85.261,57.513 74.547,76.84 63.837,96.168 85.261,96.168 
		106.683,96.168 95.974,76.84 	"/>
	<polygon fill-rule="evenodd" clip-rule="evenodd" fill="#C1488E" points="63.915,96.14 53.202,76.815 42.489,57.488 63.915,57.488 
		85.338,57.488 74.629,76.815 	"/>
	<polygon fill-rule="evenodd" clip-rule="evenodd" fill="#D3DD90" points="85.346,57.488 74.633,38.16 63.919,18.832 85.346,18.832 
		106.769,18.832 96.055,38.16 	"/>
	<polygon fill-rule="evenodd" clip-rule="evenodd" fill="#B0C65C" points="63.915,18.832 74.629,38.16 85.338,57.488 63.915,57.488 
		42.489,57.488 53.202,38.16 	"/>
</g>
<text transform="matrix(1 0 0 1 69.3056 -100.1929)" fill="#434142" font-family="'BradleyHandITCTT-Bold'" font-size="21.8778">...crece con nosotros</text>
</svg>
